<?xml version="1.0" encoding="utf-8"?>
<!-- Generator: Adobe Illustrator 23.0.1, SVG Export Plug-In . SVG Version: 6.00 Build 0)  -->
<svg version="1.1" id="Layer_1" xmlns="http://www.w3.org/2000/svg" xmlns:xlink="http://www.w3.org/1999/xlink" x="0px" y="0px"
	 viewBox="0 0 24 24" style="enable-background:new 0 0 24 24;" xml:space="preserve">
<style type="text/css">
	.st0{filter:url(#Adobe_OpacityMaskFilter);}
	.st1{fill-rule:evenodd;clip-rule:evenodd;fill:#FFFFFF;}
	.st2{mask:url(#mask-2_1_);}
	.st3{fill-rule:evenodd;clip-rule:evenodd;}
	.st4{fill:#FFFFFF;}
	.st5{filter:url(#Adobe_OpacityMaskFilter_1_);}
	.st6{mask:url(#mask-4_1_);}
</style>
<title>icon/dropahint</title>
<desc>Created with Sketch.</desc>
<g>
	<g>
		<g id="Mask">
			<path d="M17.8,6.3L22.3,1H1.7l4.5,5.4c1.4-1.6,3.8-2,5.8-0.2C14.1,4.4,16.5,4.8,17.8,6.3z M5.6,7.2L1,1.8V23h22V1.8l-4.6,5.4
				C18.8,7.9,19,8.7,19,9.7c0,3.9-3.5,7.6-7,9.3c-3.5-1.8-7-5.5-7-9.3C5,8.7,5.2,7.9,5.6,7.2z M0,0h24v24H0V0z"/>
		</g>
		<defs>
			<filter id="Adobe_OpacityMaskFilter" filterUnits="userSpaceOnUse" x="0" y="0" width="24" height="24">
				<feColorMatrix  type="matrix" values="1 0 0 0 0  0 1 0 0 0  0 0 1 0 0  0 0 0 1 0"/>
			</filter>
		</defs>
		<mask maskUnits="userSpaceOnUse" x="0" y="0" width="24" height="24" id="mask-2_1_">
			<g class="st0">
				<path id="path-1_1_" class="st1" d="M17.8,6.3L22.3,1H1.7l4.5,5.4c1.4-1.6,3.8-2,5.8-0.2C14.1,4.4,16.5,4.8,17.8,6.3z M5.6,7.2
					L1,1.8V23h22V1.8l-4.6,5.4C18.8,7.9,19,8.7,19,9.7c0,3.9-3.5,7.6-7,9.3c-3.5-1.8-7-5.5-7-9.3C5,8.7,5.2,7.9,5.6,7.2z M0,0h24v24
					H0V0z"/>
			</g>
		</mask>
		<g class="st2">
			<rect id="Rectangle" class="st3" width="24" height="24"/>
		</g>
	</g>
	<g transform="translate(6.000000, 6.000000)">
		<g>
			<path class="st4" d="M12,3.7c0-3.2-2.9-4.8-5.4-2.7L6,1.5L5.3,0.9C3-1.1,0,0.5,0,3.7c0,3,2.6,6.3,6,8.2C9.4,10,12,6.7,12,3.7z"/>
		</g>
		<defs>
			<filter id="Adobe_OpacityMaskFilter_1_" filterUnits="userSpaceOnUse" x="-1" y="-1" width="14" height="14">
				<feColorMatrix  type="matrix" values="1 0 0 0 0  0 1 0 0 0  0 0 1 0 0  0 0 0 1 0"/>
			</filter>
		</defs>
		<mask maskUnits="userSpaceOnUse" x="-1" y="-1" width="14" height="14" id="mask-4_1_">
			<g class="st5">
				<path id="path-3_1_" class="st1" d="M12,3.7c0-3.2-2.9-4.8-5.4-2.7L6,1.5L5.3,0.9C3-1.1,0,0.5,0,3.7c0,3,2.6,6.3,6,8.2
					C9.4,10,12,6.7,12,3.7z"/>
			</g>
		</mask>
		<g class="st6">
			<g transform="translate(-1.000000, -1.000000)">
				<rect class="st1" width="14" height="14"/>
			</g>
		</g>
	</g>
</g>
</svg>
